<svg width="20" height="19" viewBox="0 0 20 19" fill="none" xmlns="http://www.w3.org/2000/svg">
<path d="M1.5 9.00001H7.5C8.053 9.00001 8.5 8.55301 8.5 8.00001V2.00001C8.5 1.44701 8.053 1.00001 7.5 1.00001H1.5C0.947 1.00001 0.5 1.44701 0.5 2.00001V8.00001C0.5 8.55301 0.947 9.00001 1.5 9.00001ZM1.5 19H7.5C8.053 19 8.5 18.553 8.5 18V12C8.5 11.447 8.053 11 7.5 11H1.5C0.947 11 0.5 11.447 0.5 12V18C0.5 18.553 0.947 19 1.5 19ZM11.5 19H17.5C18.053 19 18.5 18.553 18.5 18V12C18.5 11.447 18.053 11 17.5 11H11.5C10.947 11 10.5 11.447 10.5 12V18C10.5 18.553 10.947 19 11.5 19ZM18.793 4.29301L15.207 0.707007C14.816 0.316007 14.184 0.316007 13.793 0.707007L10.207 4.29301C9.816 4.68401 9.816 5.31601 10.207 5.70701L13.793 9.29301C14.184 9.68401 14.816 9.68401 15.207 9.29301L18.793 5.70701C19.184 5.31601 19.184 4.68401 18.793 4.29301Z" fill="#999999"/>
</svg>
